<svg version="1.1" id="svg2" xml:space="preserve" width="482.67969" height="153.29297" viewBox="0 0 482.67966 153.29298" xmlns="http://www.w3.org/2000/svg" ><defs id="defs6" /><g id="g8" transform="matrix(1.3333333,0,0,-1.3333333,-9.4691995,1590.7444)"><g id="g10" transform="matrix(1,0,0,-1,-233.31802,541.46068)"><path d="m 247.91992,-641.63672 c 0,0 13.91992,0 13.91992,0 0,0 0,82.55762 0,82.55762 0,0 33.83936,0 33.83936,0 0,0 0,13.19922 0,13.19922 0,0 -47.75928,0 -47.75928,0 0,0 0,-95.75684 0,-95.75684 z" style="fill:#000000;fill-opacity:1;fill-rule:nonzero;stroke:none" id="path12" /><path d="m 305.62988,-641.69727 c 0,0 14.32617,0 14.32617,0 0,0 0,95.71875 0,95.71875 0,0 -14.32617,0 -14.32617,0 0,0 0,-95.71875 0,-95.71875 z" style="fill:#000000;fill-opacity:1;fill-rule:nonzero;stroke:none" id="path14" /><path d="m 543.9375,-557.17383 c -20,0 -36.21289,-16.53711 -36.21289,-36.9375 0,-20.3999 16.21289,-36.93701 36.21289,-36.93701 20,0 36.21289,16.53711 36.21289,36.93701 0,20.40039 -16.21289,36.9375 -36.21289,36.9375 z m -0.20117,-86.92383 c -28.27344,0 -51.19336,22.37891 -51.19336,49.98438 0,27.60644 22.91992,49.98535 51.19336,49.98535 28.27344,0 51.19336,-22.37891 51.19336,-49.98535 0,-27.60547 -22.91992,-49.98438 -51.19336,-49.98438 z" style="fill:#000000;fill-opacity:1;fill-rule:nonzero;stroke:none" id="path16" /><path d="m 332.29248,-641.64648 c 0,0 14.32568,0 14.32568,0 0,0 0,66.79101 0,68.5039 0,2.74414 1.73731,16.12793 18.0127,16.12793 16.27539,0 18.99658,-13.27441 18.99658,-16.12793 0,-2.85547 0,-68.5039 0,-68.5039 0,0 14.32569,0 14.32569,0 0,0 0,68.5039 0,68.5039 0,0 -2.19922,28.99414 -33.32227,28.99414 -31.12305,0 -32.33838,-28.99414 -32.33838,-28.99414 0,0 0,-68.5039 0,-68.5039 z" style="fill:#000000;fill-opacity:1;fill-rule:nonzero;stroke:none" id="path18" /><path d="m 428.19727,-610.47705 c 7.0332,0 12.73437,5.60107 12.73437,12.51074 0,6.90967 -5.70117,12.51123 -12.73437,12.51123 -7.03321,0 -12.73487,-5.60156 -12.73487,-12.51123 0,-6.90967 5.70166,-12.51074 12.73487,-12.51074 z" style="fill:#000000;fill-opacity:1;fill-rule:nonzero;stroke:none" id="path20" /><path d="m 465.60352,-641.64648 c 0,0 14.32617,0 14.32617,0 0,0 0,68.5039 0,68.5039 0,0 2.33984,28.99414 -27.06934,28.99414 -23.27051,0 -27.05078,-21.44824 -27.05078,-21.44824 0,0 15.34375,0 15.34375,0 0,0 1.01758,8.75977 11.70703,8.61719 14.22949,0 12.74317,-16.16309 12.74317,-16.16309 0,0 0,-68.5039 0,-68.5039 z" style="fill:#000000;fill-opacity:1;fill-rule:nonzero;stroke:none" id="path22" /></g></g></svg>